<svg width="19" height="15" viewBox="0 0 19 15" fill="none" xmlns="http://www.w3.org/2000/svg">
<path d="M17.0526 14.4H1.89474C1.39222 14.4 0.910288 14.2004 0.554956 13.845C0.199623 13.4897 0 13.0078 0 12.5053V1.89474C0 1.39222 0.199623 0.910288 0.554956 0.554956C0.910288 0.199623 1.39222 0 1.89474 0H17.0526C17.5551 0 18.0371 0.199623 18.3924 0.554956C18.7477 0.910288 18.9474 1.39222 18.9474 1.89474V12.5053C18.9474 13.0078 18.7477 13.4897 18.3924 13.845C18.0371 14.2004 17.5551 14.4 17.0526 14.4V14.4ZM1.89474 0.757895C1.59323 0.757895 1.30407 0.877669 1.09087 1.09087C0.877669 1.30407 0.757895 1.59323 0.757895 1.89474V12.5053C0.757895 12.8068 0.877669 13.0959 1.09087 13.3091C1.30407 13.5223 1.59323 13.6421 1.89474 13.6421H17.0526C17.3541 13.6421 17.6433 13.5223 17.8565 13.3091C18.0697 13.0959 18.1895 12.8068 18.1895 12.5053V1.89474C18.1895 1.59323 18.0697 1.30407 17.8565 1.09087C17.6433 0.877669 17.3541 0.757895 17.0526 0.757895H1.89474Z" fill="#949494"/>
<path d="M9.47373 8.98888C9.04985 8.98825 8.64258 8.82399 8.33689 8.53035L0.875412 1.40993C0.81146 1.33882 0.776761 1.24616 0.778276 1.15053C0.779791 1.05491 0.817408 0.963389 0.883581 0.89434C0.949753 0.82529 1.03959 0.783815 1.13506 0.778234C1.23054 0.772653 1.32459 0.803379 1.39836 0.864248L8.85983 7.98467C9.02495 8.14308 9.24491 8.23154 9.47373 8.23154C9.70255 8.23154 9.92251 8.14308 10.0876 7.98467L17.5491 0.864248C17.6229 0.803379 17.7169 0.772653 17.8124 0.778234C17.9079 0.783815 17.9977 0.82529 18.0639 0.89434C18.13 0.963389 18.1677 1.05491 18.1692 1.15053C18.1707 1.24616 18.136 1.33882 18.072 1.40993L10.6106 8.53035C10.3049 8.82399 9.8976 8.98825 9.47373 8.98888Z" fill="#949494"/>
</svg>
