<svg width="18" height="18" viewBox="0 0 18 18" fill="none" xmlns="http://www.w3.org/2000/svg">
<path d="M9 0C4.05354 0 0 3.97111 0 8.77531C0 13.5516 4.0166 17.4823 9 17.4823C13.9772 17.4823 18 13.5575 18 8.77531C18 3.97111 13.9465 0 9 0ZM10.582 16.3043C10.0758 16.4068 9.53792 16.458 9 16.458C8.46208 16.458 7.92416 16.4068 7.41797 16.3043V13.9074C7.41797 13.3337 7.57617 13.1288 7.78711 12.8522C7.8945 12.733 7.95932 12.626 8.44093 11.9201L7.62891 11.7972C5.54054 11.5001 4.71794 10.445 4.39096 9.62548C3.96909 8.5295 4.1906 7.15675 4.95003 6.28618C5.06607 6.15294 5.16096 5.92753 5.07664 5.69198C4.9183 5.22075 4.93945 4.47302 5.04492 4.18612C5.60413 4.26375 6.17912 4.65282 6.65868 4.93398C6.87964 5.05922 6.99554 5.02615 7.10156 5.03642C7.48691 4.95852 8.088 4.77006 9.01057 4.77006C9.58008 4.77006 10.1813 4.85195 10.772 5.01588C10.8776 5.01347 11.0473 5.1007 11.3415 4.93398C11.8427 4.63734 12.3982 4.26161 12.9551 4.18612C13.0605 4.47302 13.0817 5.22075 12.9235 5.69198C12.839 5.92753 12.9339 6.15294 13.0501 6.28618C13.8094 7.15689 14.0309 8.5295 13.609 9.62548C13.2821 10.445 12.4595 11.5001 10.3711 11.7972L9.55907 11.9201C10.0569 12.6497 10.1093 12.7372 10.213 12.8522C10.4238 13.1288 10.582 13.3337 10.582 13.9074V16.3043ZM11.6367 16.0073V13.9074C11.6367 13.3234 11.5101 12.9342 11.3413 12.6473C12.9445 12.2274 14.0836 11.3054 14.5898 9.984C15.1278 8.59098 14.8852 6.93147 13.9886 5.78414C14.147 5.0979 14.147 4.00179 13.7672 3.48961C13.5985 3.26433 13.3664 3.14136 13.0711 3.14136C13.0605 3.14136 13.0605 3.14136 13.0605 3.14136C12.2428 3.18431 11.5991 3.58431 10.909 3.99152C10.2762 3.8276 9.63281 3.7457 8.98943 3.7457C8.3356 3.7457 7.68164 3.83787 7.1017 3.99152C6.37523 3.56604 5.73775 3.18324 4.89729 3.14136C4.63362 3.14136 4.40154 3.26433 4.23276 3.48961C3.85318 4.00179 3.85318 5.0979 4.01138 5.78414C3.11476 6.93147 2.87224 8.60112 3.41016 9.984C3.91635 11.3054 5.0555 12.2274 6.65868 12.6473C6.5278 12.8697 6.42426 13.1566 6.38347 13.5448C6.05965 13.6533 5.77881 13.6886 5.51761 13.6141C5.24213 13.535 5.02748 13.3564 4.84099 13.0517C4.42213 12.3683 3.70871 11.8104 2.89641 11.8829L2.98911 12.9033C3.36525 12.8698 3.73961 13.2563 3.93407 13.575C4.25487 14.0997 4.68704 14.4438 5.21892 14.5964C5.61374 14.7094 5.97464 14.7067 6.36328 14.6261V16.0073C3.29411 14.9624 1.05469 12.1147 1.05469 8.77531C1.05469 4.53451 4.63362 1.02436 9 1.02436C13.3664 1.02436 16.9453 4.53451 16.9453 8.77531C16.9453 12.1147 14.7059 14.9624 11.6367 16.0073Z" fill="white"/>
</svg>
