<svg width="18" height="18" viewBox="0 0 18 18" fill="none" xmlns="http://www.w3.org/2000/svg">
<path d="M9 4.3186C6.45968 4.3186 4.35484 6.38715 4.35484 8.96377C4.35484 11.5404 6.42339 13.6089 9 13.6089C11.5766 13.6089 13.6452 11.5041 13.6452 8.96377C13.6452 6.42344 11.5403 4.3186 9 4.3186ZM9 11.9396C7.36694 11.9396 6.02419 10.5968 6.02419 8.96377C6.02419 7.3307 7.36694 5.98796 9 5.98796C10.6331 5.98796 11.9758 7.3307 11.9758 8.96377C11.9758 10.5968 10.6331 11.9396 9 11.9396Z" fill="white"/>
<path d="M13.8267 5.26207C14.4079 5.26207 14.8791 4.79088 14.8791 4.20965C14.8791 3.62841 14.4079 3.15723 13.8267 3.15723C13.2454 3.15723 12.7742 3.62841 12.7742 4.20965C12.7742 4.79088 13.2454 5.26207 13.8267 5.26207Z" fill="white"/>
<path d="M16.5484 1.4879C15.6048 0.508064 14.2621 0 12.7379 0H5.2621C2.10484 0 0 2.10484 0 5.2621V12.7016C0 14.2621 0.508064 15.6048 1.52419 16.5847C2.50403 17.5282 3.81048 18 5.29839 18H12.7016C14.2621 18 15.5685 17.4919 16.5121 16.5847C17.4919 15.6411 18 14.2984 18 12.7379V5.2621C18 3.7379 17.4919 2.43145 16.5484 1.4879ZM16.4032 12.7379C16.4032 13.8629 16.004 14.7702 15.3508 15.3871C14.6976 16.004 13.7903 16.3306 12.7016 16.3306H5.29839C4.20968 16.3306 3.30242 16.004 2.64919 15.3871C1.99597 14.7339 1.66935 13.8266 1.66935 12.7016V5.2621C1.66935 4.17339 1.99597 3.26613 2.64919 2.6129C3.26613 1.99597 4.20968 1.66935 5.29839 1.66935H12.7742C13.8629 1.66935 14.7702 1.99597 15.4234 2.64919C16.0403 3.30242 16.4032 4.20968 16.4032 5.2621V12.7379Z" fill="white"/>
</svg>
