<svg width="67" height="19" viewBox="0 0 67 19" fill="none" xmlns="http://www.w3.org/2000/svg">
<rect width="67" height="19" rx="4" fill="#F90000"/>
<path d="M10.5195 14H9.13086V5.43359H13.9648V6.61719H10.5195V9.29492H13.748V10.4844H10.5195V14ZM16.748 14H15.3711V7.51953H16.748V14ZM15.2891 5.80273C15.2891 5.55664 15.3555 5.36719 15.4883 5.23438C15.625 5.10156 15.8184 5.03516 16.0684 5.03516C16.3105 5.03516 16.498 5.10156 16.6309 5.23438C16.7676 5.36719 16.8359 5.55664 16.8359 5.80273C16.8359 6.03711 16.7676 6.22266 16.6309 6.35938C16.498 6.49219 16.3105 6.55859 16.0684 6.55859C15.8184 6.55859 15.625 6.49219 15.4883 6.35938C15.3555 6.22266 15.2891 6.03711 15.2891 5.80273ZM22.0098 7.40234C22.2871 7.40234 22.5156 7.42188 22.6953 7.46094L22.5605 8.74414C22.3652 8.69727 22.1621 8.67383 21.9512 8.67383C21.4004 8.67383 20.9531 8.85352 20.6094 9.21289C20.2695 9.57227 20.0996 10.0391 20.0996 10.6133V14H18.7227V7.51953H19.8008L19.9824 8.66211H20.0527C20.2676 8.27539 20.5469 7.96875 20.8906 7.74219C21.2383 7.51562 21.6113 7.40234 22.0098 7.40234ZM28.2559 12.1543C28.2559 12.7871 28.0254 13.2734 27.5645 13.6133C27.1035 13.9492 26.4434 14.1172 25.584 14.1172C24.7207 14.1172 24.0273 13.9863 23.5039 13.7246V12.5352C24.2656 12.8867 24.9746 13.0625 25.6309 13.0625C26.4785 13.0625 26.9023 12.8066 26.9023 12.2949C26.9023 12.1309 26.8555 11.9941 26.7617 11.8848C26.668 11.7754 26.5137 11.6621 26.2988 11.5449C26.084 11.4277 25.7852 11.2949 25.4023 11.1465C24.6562 10.8574 24.1504 10.5684 23.8848 10.2793C23.623 9.99023 23.4922 9.61523 23.4922 9.1543C23.4922 8.59961 23.7148 8.16992 24.1602 7.86523C24.6094 7.55664 25.2188 7.40234 25.9883 7.40234C26.75 7.40234 27.4707 7.55664 28.1504 7.86523L27.7051 8.90234C27.0059 8.61328 26.418 8.46875 25.9414 8.46875C25.2148 8.46875 24.8516 8.67578 24.8516 9.08984C24.8516 9.29297 24.9453 9.46484 25.1328 9.60547C25.3242 9.74609 25.7383 9.93945 26.375 10.1855C26.9102 10.3926 27.2988 10.582 27.541 10.7539C27.7832 10.9258 27.9629 11.125 28.0801 11.3516C28.1973 11.5742 28.2559 11.8418 28.2559 12.1543ZM32.5801 14.1172C31.5723 14.1172 30.7832 13.8242 30.2129 13.2383C29.6465 12.6484 29.3633 11.8379 29.3633 10.8066C29.3633 9.74805 29.627 8.91602 30.1543 8.31055C30.6816 7.70508 31.4062 7.40234 32.3281 7.40234C33.1836 7.40234 33.8594 7.66211 34.3555 8.18164C34.8516 8.70117 35.0996 9.41602 35.0996 10.3262V11.0703H30.7812C30.8008 11.6992 30.9707 12.1836 31.291 12.5234C31.6113 12.8594 32.0625 13.0273 32.6445 13.0273C33.0273 13.0273 33.3828 12.9922 33.7109 12.9219C34.043 12.8477 34.3984 12.7266 34.7773 12.5586V13.6777C34.4414 13.8379 34.1016 13.9512 33.7578 14.0176C33.4141 14.084 33.0215 14.1172 32.5801 14.1172ZM32.3281 8.44531C31.8906 8.44531 31.5391 8.58398 31.2734 8.86133C31.0117 9.13867 30.8555 9.54297 30.8047 10.0742H33.7461C33.7383 9.53906 33.6094 9.13477 33.3594 8.86133C33.1094 8.58398 32.7656 8.44531 32.3281 8.44531ZM42.3652 14H40.9824V10.0156C40.9824 9.51562 40.8809 9.14258 40.6777 8.89648C40.4785 8.65039 40.1602 8.52734 39.7227 8.52734C39.1406 8.52734 38.7148 8.69922 38.4453 9.04297C38.1758 9.38672 38.041 9.96289 38.041 10.7715V14H36.6641V7.51953H37.7422L37.9355 8.36914H38.0059C38.2012 8.06055 38.4785 7.82227 38.8379 7.6543C39.1973 7.48633 39.5957 7.40234 40.0332 7.40234C41.5879 7.40234 42.3652 8.19336 42.3652 9.77539V14ZM45.6113 10.5781L46.3906 9.60547L48.3477 7.51953H49.9355L47.3281 10.3027L50.0996 14H48.4824L46.4023 11.1582L45.6465 11.7793V14H44.2812V4.88281H45.6465V9.33008L45.5762 10.5781H45.6113ZM56.8965 10.748C56.8965 11.8066 56.625 12.6328 56.082 13.2266C55.5391 13.8203 54.7832 14.1172 53.8145 14.1172C53.209 14.1172 52.6738 13.9805 52.209 13.707C51.7441 13.4336 51.3867 13.041 51.1367 12.5293C50.8867 12.0176 50.7617 11.4238 50.7617 10.748C50.7617 9.69727 51.0312 8.87695 51.5703 8.28711C52.1094 7.69727 52.8691 7.40234 53.8496 7.40234C54.7871 7.40234 55.5293 7.70508 56.0762 8.31055C56.623 8.91211 56.8965 9.72461 56.8965 10.748ZM52.1797 10.748C52.1797 12.2441 52.7324 12.9922 53.8379 12.9922C54.9316 12.9922 55.4785 12.2441 55.4785 10.748C55.4785 9.26758 54.9277 8.52734 53.8262 8.52734C53.248 8.52734 52.8281 8.71875 52.5664 9.10156C52.3086 9.48438 52.1797 10.0332 52.1797 10.748ZM58.2793 13.2676C58.2793 12.9824 58.3535 12.7637 58.502 12.6113C58.6504 12.459 58.8652 12.3828 59.1465 12.3828C59.4316 12.3828 59.6484 12.4629 59.7969 12.623C59.9453 12.7793 60.0195 12.9941 60.0195 13.2676C60.0195 13.5449 59.9434 13.7656 59.791 13.9297C59.6426 14.0898 59.4277 14.1699 59.1465 14.1699C58.8652 14.1699 58.6504 14.0898 58.502 13.9297C58.3535 13.7695 58.2793 13.5488 58.2793 13.2676Z" fill="white"/>
</svg>
